<svg width="22" height="20" viewBox="0 0 22 20" fill="none" xmlns="http://www.w3.org/2000/svg">
<g clip-path="url(#clip0_25840_79)">
<path d="M12.3302 6.875C12.3302 6.70924 12.2602 6.55027 12.1354 6.43306C12.0107 6.31585 11.8415 6.25 11.6651 6.25C11.4887 6.25 11.3195 6.31585 11.1948 6.43306C11.0701 6.55027 11 6.70924 11 6.875V8.75H9.00467C8.82827 8.75 8.65909 8.81585 8.53436 8.93306C8.40963 9.05027 8.33955 9.20924 8.33955 9.375C8.33955 9.54076 8.40963 9.69973 8.53436 9.81694C8.65909 9.93415 8.82827 10 9.00467 10H11V11.875C11 12.0408 11.0701 12.1997 11.1948 12.3169C11.3195 12.4342 11.4887 12.5 11.6651 12.5C11.8415 12.5 12.0107 12.4342 12.1354 12.3169C12.2602 12.1997 12.3302 12.0408 12.3302 11.875V10H14.3256C14.502 10 14.6711 9.93415 14.7959 9.81694C14.9206 9.69973 14.9907 9.54076 14.9907 9.375C14.9907 9.20924 14.9206 9.05027 14.7959 8.93306C14.6711 8.81585 14.502 8.75 14.3256 8.75H12.3302V6.875Z" fill="#F8F8F8"/>
<path d="M1.02333 1.25C0.846929 1.25 0.677755 1.31585 0.553022 1.43306C0.428289 1.55027 0.358215 1.70924 0.358215 1.875C0.358215 2.04076 0.428289 2.19973 0.553022 2.31694C0.677755 2.43415 0.846929 2.5 1.02333 2.5H2.49988L3.0333 4.50875L5.02597 14.49C5.0545 14.6332 5.13539 14.7626 5.25465 14.8557C5.37391 14.9488 5.52405 14.9999 5.67911 15H7.00933C6.30374 15 5.62704 15.2634 5.12811 15.7322C4.62918 16.2011 4.34889 16.837 4.34889 17.5C4.34889 18.163 4.62918 18.7989 5.12811 19.2678C5.62704 19.7366 6.30374 20 7.00933 20C7.71493 20 8.39163 19.7366 8.89056 19.2678C9.38949 18.7989 9.66978 18.163 9.66978 17.5C9.66978 16.837 9.38949 16.2011 8.89056 15.7322C8.39163 15.2634 7.71493 15 7.00933 15H16.3209C15.6153 15 14.9386 15.2634 14.4397 15.7322C13.9408 16.2011 13.6605 16.837 13.6605 17.5C13.6605 18.163 13.9408 18.7989 14.4397 19.2678C14.9386 19.7366 15.6153 20 16.3209 20C17.0265 20 17.7032 19.7366 18.2021 19.2678C18.7011 18.7989 18.9814 18.163 18.9814 17.5C18.9814 16.837 18.7011 16.2011 18.2021 15.7322C17.7032 15.2634 17.0265 15 16.3209 15H17.6511C17.8062 14.9999 17.9563 14.9488 18.0756 14.8557C18.1948 14.7626 18.2757 14.6332 18.3043 14.49L20.2996 4.49C20.3176 4.3998 20.3142 4.30698 20.2897 4.21815C20.2652 4.12931 20.2201 4.04664 20.1578 3.976C20.0954 3.90537 20.0173 3.8485 19.9289 3.80944C19.8406 3.77038 19.7441 3.75008 19.6465 3.75H4.20256L3.66382 1.72375C3.62792 1.58848 3.54492 1.46837 3.42801 1.38253C3.31111 1.29669 3.16702 1.25004 3.01866 1.25H1.02333ZM6.23115 13.75L4.48457 5H18.8457L17.0991 13.75H6.23115V13.75ZM8.33956 17.5C8.33956 17.8315 8.19941 18.1495 7.94995 18.3839C7.70048 18.6183 7.36213 18.75 7.00933 18.75C6.65654 18.75 6.31819 18.6183 6.06872 18.3839C5.81926 18.1495 5.67911 17.8315 5.67911 17.5C5.67911 17.1685 5.81926 16.8505 6.06872 16.6161C6.31819 16.3817 6.65654 16.25 7.00933 16.25C7.36213 16.25 7.70048 16.3817 7.94995 16.6161C8.19941 16.8505 8.33956 17.1685 8.33956 17.5V17.5ZM17.6511 17.5C17.6511 17.8315 17.511 18.1495 17.2615 18.3839C17.012 18.6183 16.6737 18.75 16.3209 18.75C15.9681 18.75 15.6298 18.6183 15.3803 18.3839C15.1308 18.1495 14.9907 17.8315 14.9907 17.5C14.9907 17.1685 15.1308 16.8505 15.3803 16.6161C15.6298 16.3817 15.9681 16.25 16.3209 16.25C16.6737 16.25 17.012 16.3817 17.2615 16.6161C17.511 16.8505 17.6511 17.1685 17.6511 17.5V17.5Z" fill="#F8F8F8"/>
</g>
<defs>
<clipPath id="clip0_25840_79">
<rect width="21.2836" height="20" fill="white" transform="translate(0.358215)"/>
</clipPath>
</defs>
</svg>
