<svg width="50" height="49" viewBox="0 0 50 49" fill="none" xmlns="http://www.w3.org/2000/svg">
<path d="M25 17.1V27.45M39.95 21.7V38.95V21.7ZM10.05 38.95V47H39.95V38.95H10.05ZM10.05 38.95H2V21.7C2 18.25 4.3 14.225 7.75 11.35C11.2 8.47499 15.8 7.89999 15.8 7.89999L25 17.1L10.05 38.95ZM10.05 38.95V21.7V38.95ZM39.95 38.95H48V21.7C48 18.25 45.7 14.225 42.25 11.35C38.8 8.47499 34.2 7.89999 34.2 7.89999L25 17.1L39.95 38.95Z" stroke="black" stroke-width="3" stroke-linecap="round" stroke-linejoin="round"/>
<path d="M7.74995 11.35C11.2 8.475 15.8 7.9 15.8 7.9L25 17.1L34.2 7.9C34.2 7.9 38.8 8.475 42.25 11.35L44.55 6.175L42.25 1H7.74995L5.44995 6.175L7.74995 11.35Z" stroke="black" stroke-width="2" stroke-linecap="round" stroke-linejoin="round"/>
</svg>
