<svg width="76" height="76" viewBox="0 0 76 76" fill="none" xmlns="http://www.w3.org/2000/svg">
<circle cx="38" cy="38" r="38" fill="#E4E4E4"/>
<g clip-path="url(#clip0_125_6)">
<path d="M43.9473 25.0255C43.9473 25.0255 45.4451 26.3417 41.0708 31.1371L39.1097 28.3394L41.8628 25.7145L43.2806 24.2726" fill="#F59292" fill-opacity="0.22"/>
<path d="M32.7671 24.2217L33.9942 25.7107L36.7515 28.3394L34.7905 31.1371C30.4161 26.3412 31.914 25.0255 31.914 25.0255" fill="#F59292" fill-opacity="0.22"/>
<path d="M46.099 26.8075L48.1096 27.4044V58H26.8524V27.4044L28.7363 26.7463" stroke="black" stroke-width="2" stroke-miterlimit="10" stroke-linecap="round" stroke-linejoin="round"/>
<path d="M54.9889 39.12L48.1097 36.8242V27.4044L57.0898 31.9961L54.9889 39.12Z" stroke="black" stroke-width="2" stroke-miterlimit="10" stroke-linecap="round" stroke-linejoin="round"/>
<path d="M19.9732 39.12L26.8524 36.8242V27.4044L17.8723 31.9961L19.9732 39.12Z" stroke="black" stroke-width="2" stroke-miterlimit="10" stroke-linecap="round" stroke-linejoin="round"/>
<path d="M41.9085 24.6311L38.7529 28.3396L41.0002 32.2922C46.013 25.5165 44.2966 23.6577 44.2966 23.6577C36.9832 17.2593 30.5075 23.6577 30.5075 23.6577C30.5075 23.6577 28.7903 25.5173 33.8031 32.2922L36.0511 28.3396L32.8906 24.6257" stroke="black" stroke-width="2" stroke-miterlimit="10" stroke-linecap="round" stroke-linejoin="round"/>
<path d="M37.4018 32.3848C37.7317 32.3848 37.9992 32.0926 37.9992 31.7321C37.9992 31.3715 37.7317 31.0793 37.4018 31.0793C37.0719 31.0793 36.8044 31.3715 36.8044 31.7321C36.8044 32.0926 37.0719 32.3848 37.4018 32.3848Z" fill="black"/>
<path d="M37.4018 34.885C37.7317 34.885 37.9992 34.5927 37.9992 34.2322C37.9992 33.8717 37.7317 33.5794 37.4018 33.5794C37.0719 33.5794 36.8044 33.8717 36.8044 34.2322C36.8044 34.5927 37.0719 34.885 37.4018 34.885Z" fill="black"/>
<path d="M37.4018 37.3843C37.7317 37.3843 37.9992 37.0921 37.9992 36.7316C37.9992 36.3711 37.7317 36.0788 37.4018 36.0788C37.0719 36.0788 36.8044 36.3711 36.8044 36.7316C36.8044 37.0921 37.0719 37.3843 37.4018 37.3843Z" fill="black"/>
</g>
<defs>
<clipPath id="clip0_125_6">
<rect width="44" height="39" fill="white" transform="translate(16 19)"/>
</clipPath>
</defs>
</svg>
