<svg width="76" height="76" viewBox="0 0 76 76" fill="none" xmlns="http://www.w3.org/2000/svg">
<circle cx="38" cy="38" r="38" fill="#E4E4E4"/>
<path d="M25.7083 50.625H19V31.4583C19 28.5833 20.9167 25.2292 23.7917 22.8333C26.6667 20.4375 32.4167 19 32.4167 19H43.9167C43.9167 19 49.6667 20.4375 52.5417 22.8333C55.4167 25.2292 57.3333 28.5833 57.3333 31.4583V50.625H50.625" stroke="black" stroke-width="3.83333" stroke-linecap="round" stroke-linejoin="round"/>
<path d="M50.625 31.4583V57.3333H25.7084V31.4583" stroke="black" stroke-width="3.83333" stroke-linecap="round" stroke-linejoin="round"/>
<path d="M43.9166 19C43.9166 20.525 43.3108 21.9875 42.2325 23.0659C41.1542 24.1442 39.6916 24.75 38.1666 24.75C36.6416 24.75 35.1791 24.1442 34.1008 23.0659C33.0224 21.9875 32.4166 20.525 32.4166 19" stroke="black" stroke-width="3.83333" stroke-linecap="round" stroke-linejoin="round"/>
</svg>
