<svg width="76" height="76" viewBox="0 0 76 76" fill="none" xmlns="http://www.w3.org/2000/svg">
<circle cx="38" cy="38" r="38" fill="#E4E4E4"/>
<path d="M40.5556 53.8947H52.8889V45.6842H44.6667V41.5789H52.8889V25.1579H48.7778V35.4211L40.5556 32.1368V53.8947ZM36.4444 53.8947V32.1368L28.2222 35.4211V25.1579H24.1111V53.8947H36.4444ZM28.2222 21.0526V19H48.7778V21.0526H54.9444C55.4896 21.0526 56.0125 21.2689 56.3979 21.6538C56.7834 22.0388 57 22.5609 57 23.1053V55.9474C57 56.4918 56.7834 57.0139 56.3979 57.3988C56.0125 57.7837 55.4896 58 54.9444 58H22.0556C21.5104 58 20.9875 57.7837 20.6021 57.3988C20.2166 57.0139 20 56.4918 20 55.9474V23.1053C20 22.5609 20.2166 22.0388 20.6021 21.6538C20.9875 21.2689 21.5104 21.0526 22.0556 21.0526H28.2222ZM38.5 29.2632L45.6944 23.1053H31.3056L38.5 29.2632Z" fill="black"/>
</svg>
