<svg width="76" height="76" viewBox="0 0 76 76" fill="none" xmlns="http://www.w3.org/2000/svg">
<circle cx="38" cy="38" r="38" fill="#E4E4E4"/>
<path d="M38.5 29.7647V38.5M50.525 33.6471V48.2059V33.6471ZM26.475 48.2059V55H50.525V48.2059H26.475ZM26.475 48.2059H20V33.6471C20 30.7353 21.85 27.3382 24.625 24.9118C27.4 22.4853 31.1 22 31.1 22L38.5 29.7647L26.475 48.2059ZM26.475 48.2059V33.6471V48.2059ZM50.525 48.2059H57V33.6471C57 30.7353 55.15 27.3382 52.375 24.9118C49.6 22.4853 45.9 22 45.9 22L38.5 29.7647L50.525 48.2059Z" stroke="black" stroke-width="3" stroke-linecap="round" stroke-linejoin="round"/>
<path d="M24.8235 25C27.5588 22.5 31.2059 22 31.2059 22L38.5 30L45.7941 22C45.7941 22 49.4412 22.5 52.1765 25L54 20.5L52.1765 16H24.8235L23 20.5L24.8235 25Z" stroke="black" stroke-width="2" stroke-linecap="round" stroke-linejoin="round"/>
</svg>
