<svg width="76" height="76" viewBox="0 0 76 76" fill="none" xmlns="http://www.w3.org/2000/svg">
<circle cx="38" cy="38" r="38" fill="#E4E4E4"/>
<g clip-path="url(#clip0_125_0)">
<path d="M59.6455 26.1391L50.7689 21.0719H50.751L50.6611 21.0359H50.6252L50.5353 21H44.3002C43.9189 21 43.5533 21.1515 43.2837 21.421C43.0141 21.6906 42.8627 22.0563 42.8627 22.4375C42.8627 23.5812 42.4083 24.6781 41.5996 25.4869C40.7908 26.2956 39.6939 26.75 38.5502 26.75C37.4064 26.75 36.3095 26.2956 35.5008 25.4869C34.692 24.6781 34.2377 23.5812 34.2377 22.4375C34.2377 22.0563 34.0862 21.6906 33.8166 21.421C33.5471 21.1515 33.1814 21 32.8002 21H26.565L26.4752 21.0359H26.4392L26.3494 21.0719H26.3314L17.4549 26.1391C16.8148 26.4996 16.3383 27.0928 16.1241 27.7955C15.91 28.4981 15.9747 29.2563 16.3049 29.9125L19.6111 36.543C19.8509 37.0187 20.2181 37.4185 20.6718 37.6977C21.1255 37.9769 21.6479 38.1246 22.1806 38.1242H25.6127V52.4992C25.6127 53.2617 25.9156 53.993 26.4547 54.5322C26.9939 55.0713 27.7252 55.3742 28.4877 55.3742H48.6127C49.3752 55.3742 50.1064 55.0713 50.6456 54.5322C51.1848 53.993 51.4877 53.2617 51.4877 52.4992V38.1242H54.9197C55.4525 38.1246 55.9748 37.9769 56.4286 37.6977C56.8823 37.4185 57.2495 37.0187 57.4892 36.543L60.7955 29.9125C61.1257 29.2563 61.1904 28.4981 60.9762 27.7955C60.7621 27.0928 60.2855 26.4996 59.6455 26.1391V26.1391ZM22.1806 35.2492L18.8744 28.6367L25.6127 24.7914V35.2492H22.1806ZM48.6127 52.4992H28.4877V23.7492H31.5064C31.8364 25.374 32.7178 26.8348 34.0016 27.884C35.2853 28.9332 36.8922 29.5064 38.5502 29.5064C40.2081 29.5064 41.8151 28.9332 43.0988 27.884C44.3825 26.8348 45.264 25.374 45.5939 23.7492H48.6127V52.4992ZM54.9197 35.2492H51.4877V24.7914L58.226 28.6367L54.9197 35.2492Z" fill="black"/>
</g>
<defs>
<clipPath id="clip0_125_0">
<rect width="46" height="46" fill="white" transform="translate(15 15)"/>
</clipPath>
</defs>
</svg>
